<svg width="79" height="15" viewBox="0 0 79 15" fill="none" xmlns="http://www.w3.org/2000/svg">
  <path d="M0 5.79544L5.45036 5.43711L7.50299 0.280396L9.55561 5.43711L15 5.79544L10.8242 9.34113L12.1945 14.7197L7.50299 11.7543L2.81147 14.7197L4.18175 9.34113L0 5.79544Z" fill="#E2E2E2"/>
  <path d="M16 5.79544L21.4504 5.43711L23.503 0.280396L25.5556 5.43711L31 5.79544L26.8242 9.34113L28.1945 14.7197L23.503 11.7543L18.8115 14.7197L20.1817 9.34113L16 5.79544Z" fill="#E2E2E2"/>
  <path d="M32 5.79544L37.4504 5.43711L39.503 0.280396L41.5556 5.43711L47 5.79544L42.8242 9.34113L44.1945 14.7197L39.503 11.7543L34.8115 14.7197L36.1817 9.34113L32 5.79544Z" fill="#E2E2E2"/>
  <path d="M48 5.79544L53.4504 5.43711L55.503 0.280396L57.5556 5.43711L63 5.79544L58.8242 9.34113L60.1945 14.7197L55.503 11.7543L50.8115 14.7197L52.1817 9.34113L48 5.79544Z" fill="#E2E2E2"/>
  <path d="M64 5.79544L69.4504 5.43711L71.503 0.280396L73.5556 5.43711L79 5.79544L74.8242 9.34113L76.1945 14.7197L71.503 11.7543L66.8115 14.7197L68.1817 9.34113L64 5.79544Z" fill="#E2E2E2"/>
</svg>
